<svg xmlns="http://www.w3.org/2000/svg" version="1.1" xmlns:xlink="http://www.w3.org/1999/xlink" xmlns:svgjs="http://svgjs.com/svgjs" width="1440" height="80" preserveAspectRatio="none" viewBox="0 0 1440 80"><g mask="url(&quot;#SvgjsMask1008&quot;)" fill="none"><path d="M1393.765,91.758C1398.763,91.587,1403.488,89.537,1406.203,85.337C1409.182,80.728,1410.163,75.008,1407.789,70.06C1405.068,64.389,1400.054,59.285,1393.765,59.414C1387.618,59.54,1383.548,65.165,1380.703,70.615C1378.114,75.574,1376.818,81.485,1379.758,86.244C1382.585,90.819,1388.39,91.942,1393.765,91.758" fill="rgba(0, 181, 184, 0.63)" class="triangle-float2"></path><path d="M347.69,75.618C352.734,75.623,357.813,73.515,360.2,69.071C362.487,64.812,360.779,59.873,358.409,55.66C355.977,51.335,352.652,46.846,347.69,46.826C342.705,46.805,339.257,51.224,336.818,55.571C334.446,59.799,332.913,64.784,335.224,69.046C337.625,73.472,342.655,75.613,347.69,75.618" fill="rgba(0, 181, 184, 0.63)" class="triangle-float2"></path><path d="M133.053,27.557C136.903,27.52,139.839,24.534,141.746,21.19C143.632,17.883,144.594,13.904,142.736,10.581C140.841,7.192,136.931,5.454,133.053,5.647C129.481,5.825,126.686,8.366,124.911,11.47C123.151,14.547,122.469,18.194,124.07,21.357C125.831,24.837,129.153,27.594,133.053,27.557" fill="rgba(0, 181, 184, 0.63)" class="triangle-float2"></path><path d="M317.199,42.866C323.698,42.297,329.074,38.382,332.421,32.782C335.875,27.004,337.753,19.9,334.426,14.047C331.069,8.141,323.986,5.709,317.199,6.002C310.926,6.273,305.935,10.263,302.367,15.43C298.041,21.694,292.912,29.228,296.532,35.925C300.236,42.777,309.44,43.546,317.199,42.866" fill="rgba(0, 181, 184, 0.63)" class="triangle-float3"></path><path d="M1116.436,67.376C1122.412,67.413,1127.013,62.875,1130.133,57.778C1133.438,52.38,1135.933,45.913,1133.013,40.298C1129.915,34.341,1123.142,31.096,1116.436,31.441C1110.246,31.759,1105.394,36.347,1102.568,41.863C1100.001,46.873,1100.339,52.665,1103.027,57.611C1105.857,62.818,1110.51,67.34,1116.436,67.376" fill="rgba(0, 181, 184, 0.63)" class="triangle-float1"></path><path d="M268.77,69.919C275.226,70.076,281.412,66.641,284.462,60.948C287.367,55.525,285.857,49.127,282.756,43.814C279.686,38.553,274.861,34.032,268.77,34.062C262.719,34.091,257.94,38.65,255.018,43.949C252.209,49.043,251.623,55.076,254.345,60.217C257.252,65.706,262.561,69.768,268.77,69.919" fill="rgba(0, 181, 184, 0.63)" class="triangle-float2"></path><path d="M836.938,18.099C841.687,18.393,846.967,17.222,849.264,13.055C851.512,8.977,849.051,4.322,846.771,0.261C844.42,-3.926,841.734,-8.673,836.938,-8.904C831.876,-9.148,827.517,-5.337,825.313,-0.774C823.36,3.268,824.641,7.856,826.995,11.678C829.212,15.278,832.718,17.838,836.938,18.099" fill="rgba(0, 181, 184, 0.63)" class="triangle-float3"></path><path d="M581.438,61.381C586.545,61.19,589.977,56.824,592.606,52.441C595.342,47.878,597.964,42.586,595.553,37.844C592.975,32.773,587.127,30.415,581.438,30.47C575.85,30.524,570.507,33.229,567.791,38.113C565.143,42.874,565.969,48.634,568.725,53.333C571.445,57.97,576.066,61.582,581.438,61.381" fill="rgba(0, 181, 184, 0.63)" class="triangle-float1"></path><path d="M1215.326,39.502C1222.896,39.508,1229.413,34.78,1233.3,28.284C1237.308,21.586,1238.819,13.353,1235.069,6.508C1231.187,-0.579,1223.404,-4.757,1215.326,-4.529C1207.609,-4.311,1201.128,0.797,1197.424,7.57C1193.878,14.055,1193.783,21.81,1197.397,28.257C1201.095,34.852,1207.765,39.496,1215.326,39.502" fill="rgba(0, 181, 184, 0.63)" class="triangle-float1"></path><path d="M1130.78,71.24C1135.471,71.314,1140.225,69.288,1142.407,65.134C1144.475,61.197,1142.957,56.511,1140.442,52.843C1138.274,49.681,1134.612,48.068,1130.78,48.175C1127.142,48.277,1124.024,50.326,1122.013,53.359C1119.716,56.823,1117.941,61.044,1119.771,64.777C1121.779,68.872,1126.22,71.168,1130.78,71.24" fill="rgba(0, 181, 184, 0.63)" class="triangle-float2"></path><path d="M1382.506,31.991C1388.774,31.95,1394.22,28.436,1397.704,23.225C1401.712,17.23,1404.806,9.885,1401.607,3.422C1398.121,-3.62,1390.362,-7.36,1382.506,-7.478C1374.429,-7.6,1366.011,-4.385,1362.381,2.831C1358.993,9.565,1362.676,17.223,1366.958,23.427C1370.56,28.647,1376.164,32.033,1382.506,31.991" fill="rgba(0, 181, 184, 0.63)" class="triangle-float1"></path><path d="M1365.132,48.328C1369.322,48.093,1371.963,44.341,1374.081,40.718C1376.227,37.046,1378.493,32.748,1376.405,29.043C1374.295,25.297,1369.419,24.514,1365.132,24.833C1361.427,25.108,1358.432,27.398,1356.43,30.527C1354.214,33.991,1352.453,38.135,1354.259,41.829C1356.247,45.895,1360.613,48.581,1365.132,48.328" fill="rgba(0, 181, 184, 0.63)" class="triangle-float3"></path><path d="M135.788,47.045C138.443,46.922,140.821,45.543,142.202,43.272C143.643,40.901,144.132,37.956,142.79,35.527C141.408,33.027,138.644,31.694,135.788,31.669C132.884,31.643,130.089,32.927,128.568,35.401C126.973,37.995,126.65,41.33,128.255,43.918C129.791,46.395,132.877,47.18,135.788,47.045" fill="rgba(0, 181, 184, 0.63)" class="triangle-float3"></path><path d="M1051.389,96.225C1057.271,96.201,1063.161,93.791,1066.001,88.64C1068.762,83.633,1067.013,77.78,1064.349,72.721C1061.428,67.174,1057.648,61.25,1051.389,60.893C1044.682,60.51,1038.738,65.148,1035.584,71.079C1032.613,76.665,1033.201,83.404,1036.568,88.761C1039.723,93.781,1045.46,96.249,1051.389,96.225" fill="rgba(0, 181, 184, 0.63)" class="triangle-float2"></path><path d="M404.055,52.942C407.505,53.031,410.845,51.352,412.554,48.354C414.249,45.381,413.894,41.717,412.127,38.786C410.42,35.954,407.36,34.14,404.055,34.256C400.928,34.366,398.455,36.601,396.909,39.321C395.384,42.004,394.846,45.202,396.28,47.935C397.815,50.861,400.752,52.857,404.055,52.942" fill="rgba(0, 181, 184, 0.63)" class="triangle-float1"></path><path d="M932.569,50.85C939.503,51.294,945.998,46.945,949.208,40.783C952.208,35.023,950.683,28.21,947.224,22.714C944.012,17.609,938.599,14.244,932.569,14.338C926.693,14.429,921.487,17.993,918.682,23.158C916.003,28.092,916.734,33.846,919.251,38.865C922.12,44.587,926.181,50.441,932.569,50.85" fill="rgba(0, 181, 184, 0.63)" class="triangle-float2"></path><path d="M917.812,59.358C926.12,59.512,935.138,58.451,939.704,51.509C944.649,43.992,944.535,33.81,939.542,26.324C934.976,19.478,926.041,18.601,917.812,18.689C909.792,18.775,901.202,20.03,896.875,26.782C892.259,33.985,892.656,43.526,897.282,50.723C901.584,57.417,909.856,59.211,917.812,59.358" fill="rgba(0, 181, 184, 0.63)" class="triangle-float3"></path><path d="M683.312,32.249C688.579,32.196,694.407,31.787,697.211,27.329C700.149,22.658,698.805,16.732,696.097,11.924C693.328,7.008,688.954,2.633,683.312,2.655C677.699,2.677,673.503,7.16,670.7,12.023C667.901,16.879,665.958,22.856,668.924,27.612C671.782,32.195,677.911,32.303,683.312,32.249" fill="rgba(0, 181, 184, 0.63)" class="triangle-float3"></path></g><defs><mask id="SvgjsMask1008"><rect width="1440" height="80" fill="#ffffff"></rect></mask><style>
            @keyframes float1 {
                0%{transform: translate(0, 0)}
                50%{transform: translate(-10px, 0)}
                100%{transform: translate(0, 0)}
            }

            .triangle-float1 {
                animation: float1 5s infinite;
            }

            @keyframes float2 {
                0%{transform: translate(0, 0)}
                50%{transform: translate(-5px, -5px)}
                100%{transform: translate(0, 0)}
            }

            .triangle-float2 {
                animation: float2 4s infinite;
            }

            @keyframes float3 {
                0%{transform: translate(0, 0)}
                50%{transform: translate(0, -10px)}
                100%{transform: translate(0, 0)}
            }

            .triangle-float3 {
                animation: float3 6s infinite;
            }
        </style></defs></svg>